<svg width="274" height="54" viewBox="0 0 274 54" fill="none" xmlns="http://www.w3.org/2000/svg">
<g clip-path="url(#clip0_127_3321)">
<path d="M5.9062 39.2832H7.71582L12.6306 50.5111H10.5536L9.42262 47.8378H4.15828L3.00671 50.5111H0.991455L5.9062 39.2832ZM8.70288 46.0898L6.76988 41.6275L4.85745 46.0898H8.70288Z" fill="#444444"/>
<path d="M19.0871 42.1011H21.0201V43.4994C21.637 42.6152 22.5213 41.916 23.8785 41.916C25.8732 41.916 27.8062 43.4994 27.8062 46.2755V46.3167C27.8062 49.1134 25.8938 50.6762 23.8785 50.6762C22.5007 50.6762 21.6165 49.977 21.0201 49.1956V53.041H19.0871V42.1011ZM25.8321 46.3372V46.2961C25.8321 44.6716 24.7422 43.6022 23.4261 43.6022C22.11 43.6022 20.979 44.6921 20.979 46.2961V46.3372C20.979 47.9618 22.1306 49.0311 23.4261 49.0311C24.7422 49.0311 25.8321 47.9823 25.8321 46.3372Z" fill="#444444"/>
<path d="M34.923 50.5105V49.4824C34.3473 50.161 33.4836 50.6956 32.2086 50.6956C30.6252 50.6956 29.2063 49.7908 29.2063 48.1046V48.0635C29.2063 46.1921 30.6458 45.3079 32.6199 45.3079C33.6481 45.3079 34.2856 45.4518 34.9436 45.6575V45.493C34.9436 44.3208 34.2033 43.6834 32.8667 43.6834C31.9207 43.6834 31.2216 43.889 30.4607 44.218L29.926 42.6757C30.8514 42.2645 31.7562 41.9766 33.134 41.9766C35.6222 41.9766 36.8355 43.2926 36.8355 45.5341V50.5105H34.923ZM34.9642 46.9941C34.4706 46.8091 33.792 46.6651 33.0312 46.6651C31.8179 46.6651 31.0982 47.1586 31.0982 47.9812V48.0223C31.0982 48.8243 31.8179 49.2562 32.7227 49.2562C33.9977 49.2562 34.9436 48.5364 34.9436 47.4877V46.9941H34.9642Z" fill="#444444"/>
<path d="M39.1165 42.1012H41.0495V43.9931C41.5842 42.7387 42.5507 41.875 44.0313 41.9367V43.9725H43.9079C42.2217 43.9725 41.0495 45.0624 41.0495 47.3039V50.5118H39.1165V42.1012Z" fill="#444444"/>
<path d="M46.1096 48.1869V43.7657H45.0403V42.1H46.1096V39.7969H48.0426V42.1H50.3046V43.7657H48.0426V47.899C48.0426 48.6393 48.4333 48.9478 49.0708 48.9478C49.5026 48.9478 49.8933 48.845 50.2635 48.6599V50.2433C49.7905 50.5106 49.2353 50.6751 48.5361 50.6751C47.0967 50.6546 46.1096 50.0377 46.1096 48.1869Z" fill="#444444"/>
<path d="M56.554 46.3578V46.3167C56.554 43.9107 58.4664 41.916 61.0369 41.916C63.6074 41.916 65.5198 43.8696 65.5198 46.2755V46.3167C65.5198 48.7021 63.6074 50.6968 61.0164 50.6968C58.4459 50.7173 56.554 48.7432 56.554 46.3578ZM63.5868 46.3578V46.3167C63.5868 44.8361 62.5175 43.6022 61.0164 43.6022C59.4741 43.6022 58.487 44.8155 58.487 46.2755V46.3167C58.487 47.7767 59.5563 49.0311 61.0575 49.0311C62.5998 49.0311 63.5868 47.8178 63.5868 46.3578Z" fill="#444444"/>
<path d="M67.9065 43.7664H66.8371V42.1624H67.9065V41.5661C67.9065 40.6202 68.1532 39.921 68.5851 39.4892C69.0375 39.0367 69.6544 38.8105 70.4769 38.8105C71.1555 38.8105 71.6079 38.9134 72.0398 39.0367V40.6613C71.6491 40.5379 71.32 40.4557 70.9088 40.4557C70.1685 40.4557 69.7983 40.8464 69.7983 41.7306V42.183H72.0192V43.7664H69.8189V50.5114H67.8859V43.7664H67.9065Z" fill="#444444"/>
<path d="M77.5696 49.4208L78.4333 48.1047C79.3381 48.7833 80.3252 49.1329 81.1889 49.1329C82.0114 49.1329 82.5049 48.7833 82.5049 48.2281V48.1869C82.5049 47.5289 81.6207 47.3027 80.6336 47.0148C79.3998 46.6652 78.0015 46.1511 78.0015 44.5472V44.506C78.0015 42.9226 79.3176 41.9355 81.0038 41.9355C82.0525 41.9355 83.2041 42.3057 84.0884 42.8815L83.3275 44.2593C82.5049 43.7657 81.6618 43.4573 80.9627 43.4573C80.2224 43.4573 79.7905 43.8069 79.7905 44.3004V44.3415C79.7905 44.9379 80.6953 45.2052 81.6824 45.5137C82.9162 45.9044 84.294 46.4596 84.294 47.9607V48.0019C84.294 49.7704 82.9162 50.6546 81.1683 50.6546C79.9345 50.6752 78.6184 50.2433 77.5696 49.4208Z" fill="#444444"/>
<path d="M86.2492 38.9961H88.3262V40.8263H86.2492V38.9961ZM86.3315 42.1012H88.2645V50.5118H86.3315V42.1012Z" fill="#444444"/>
<path d="M90.7727 42.1001H92.7057V43.4161C93.2403 42.6142 94.0218 41.9355 95.3379 41.9355C97.2297 41.9355 98.3402 43.2105 98.3402 45.1641V50.5107H96.4072V45.7399C96.4072 44.4238 95.7491 43.6835 94.5976 43.6835C93.4871 43.6835 92.7057 44.4649 92.7057 45.7604V50.5107H90.7727V42.1001Z" fill="#444444"/>
<path d="M100.623 52.0941L101.343 50.6546C102.227 51.2098 103.193 51.5388 104.345 51.5388C106.072 51.5388 106.998 50.6546 106.998 48.9684V48.3103C106.299 49.2151 105.414 49.8526 104.037 49.8526C102.062 49.8526 100.212 48.3926 100.212 45.9249V45.8838C100.212 43.3956 102.083 41.9355 104.037 41.9355C105.456 41.9355 106.34 42.5936 106.977 43.375V42.1206H108.91V48.8039C108.91 50.2228 108.54 51.2715 107.841 51.9707C107.08 52.7316 105.887 53.1017 104.386 53.1017C103.008 53.1017 101.713 52.7521 100.623 52.0941ZM107.018 45.9249V45.8838C107.018 44.506 105.887 43.5601 104.551 43.5601C103.214 43.5601 102.165 44.4855 102.165 45.8632V45.9044C102.165 47.2821 103.235 48.2281 104.551 48.2281C105.887 48.2281 107.018 47.2616 107.018 45.9249Z" fill="#444444"/>
<path d="M111.441 38.8926H113.374V50.5111H111.441V38.8926Z" fill="#444444"/>
<path d="M115.407 46.3372V46.2961C115.407 43.8901 117.114 41.916 119.52 41.916C122.193 41.916 123.55 44.0135 123.55 46.4401C123.55 46.6251 123.53 46.7896 123.509 46.9747H117.319C117.525 48.3525 118.492 49.1134 119.746 49.1134C120.692 49.1134 121.35 48.7638 122.029 48.1057L123.16 49.1134C122.358 50.0593 121.268 50.6968 119.725 50.6968C117.299 50.7173 115.407 48.9488 115.407 46.3372ZM121.638 45.7203C121.514 44.4865 120.774 43.4994 119.499 43.4994C118.327 43.4994 117.484 44.4042 117.319 45.7203H121.638Z" fill="#444444"/>
<path d="M125.505 42.1001H127.438V43.375C127.972 42.6347 128.713 41.9355 130.008 41.9355C131.222 41.9355 132.065 42.5319 132.517 43.4161C133.196 42.5319 134.1 41.9355 135.375 41.9355C137.206 41.9355 138.316 43.1077 138.316 45.1435V50.5107H136.383V45.7399C136.383 44.4032 135.766 43.6835 134.676 43.6835C133.627 43.6835 132.867 44.4238 132.867 45.7604V50.5107H130.934V45.7193C130.934 44.4032 130.296 43.6835 129.227 43.6835C128.157 43.6835 127.417 44.4855 127.417 45.781V50.5107H125.484V42.1001H125.505Z" fill="#444444"/>
<path d="M140.538 47.4677V42.1211H142.471V46.8919C142.471 48.208 143.129 48.9483 144.281 48.9483C145.391 48.9483 146.172 48.1669 146.172 46.8713V42.1211H148.105V50.5111H146.172V49.1951C145.638 49.997 144.856 50.6756 143.54 50.6756C141.648 50.6962 140.538 49.4213 140.538 47.4677Z" fill="#444444"/>
<path d="M149.833 49.4208L150.697 48.1047C151.601 48.7833 152.588 49.1329 153.452 49.1329C154.275 49.1329 154.768 48.7833 154.768 48.2281V48.1869C154.768 47.5289 153.884 47.3027 152.897 47.0148C151.663 46.6652 150.265 46.1511 150.265 44.5472V44.506C150.265 42.9226 151.581 41.9355 153.267 41.9355C154.316 41.9355 155.467 42.3057 156.352 42.8815L155.591 44.2593C154.768 43.7657 153.925 43.4573 153.226 43.4573C152.486 43.4573 152.054 43.8069 152.054 44.3004V44.3415C152.054 44.9379 152.959 45.2052 153.946 45.5137C155.179 45.9044 156.557 46.4596 156.557 47.9607V48.0019C156.557 49.7704 155.179 50.6546 153.432 50.6546C152.198 50.6752 150.882 50.2433 149.833 49.4208Z" fill="#444444"/>
<path d="M158.593 38.8926H160.526V50.5111H158.593V38.8926Z" fill="#444444"/>
<path d="M163.075 38.9961H165.152V40.8263H163.075V38.9961ZM163.137 42.1012H165.07V50.5118H163.137V42.1012Z" fill="#444444"/>
<path d="M167.599 42.1001H169.532V43.375C170.067 42.6347 170.807 41.9355 172.103 41.9355C173.316 41.9355 174.159 42.5319 174.612 43.4161C175.29 42.5319 176.195 41.9355 177.47 41.9355C179.3 41.9355 180.411 43.1077 180.411 45.1435V50.5107H178.478V45.7399C178.478 44.4032 177.861 43.6835 176.771 43.6835C175.722 43.6835 174.961 44.4238 174.961 45.7604V50.5107H173.028V45.7193C173.028 44.4032 172.391 43.6835 171.322 43.6835C170.252 43.6835 169.512 44.4855 169.512 45.781V50.5107H167.579V42.1001H167.599Z" fill="#444444"/>
<path d="M182.261 46.3372V46.2961C182.261 43.8901 183.967 41.916 186.373 41.916C189.047 41.916 190.404 44.0135 190.404 46.4401C190.404 46.6251 190.383 46.7896 190.363 46.9747H184.173C184.379 48.3525 185.345 49.1134 186.6 49.1134C187.545 49.1134 188.203 48.7638 188.882 48.1057L190.013 49.1134C189.211 50.0593 188.121 50.6968 186.579 50.6968C184.152 50.7173 182.261 48.9488 182.261 46.3372ZM188.491 45.7203C188.368 44.4865 187.628 43.4994 186.353 43.4994C185.181 43.4994 184.337 44.4042 184.173 45.7203H188.491Z" fill="#444444"/>
<path d="M191.144 42.1016H193.221L195.483 48.2913L197.766 42.1016H199.781L196.347 50.5739H194.62L191.144 42.1016Z" fill="#444444"/>
<path d="M200.48 46.3372V46.2961C200.48 43.8901 202.187 41.916 204.593 41.916C207.266 41.916 208.624 44.0135 208.624 46.4401C208.624 46.6251 208.603 46.7896 208.582 46.9747H202.393C202.598 48.3525 203.565 49.1134 204.819 49.1134C205.765 49.1134 206.423 48.7638 207.102 48.1057L208.233 49.1134C207.431 50.0593 206.341 50.6968 204.799 50.6968C202.372 50.7173 200.48 48.9488 200.48 46.3372ZM206.711 45.7203C206.588 44.4865 205.847 43.4994 204.572 43.4994C203.4 43.4994 202.557 44.4042 202.393 45.7203H206.711Z" fill="#444444"/>
<path d="M210.579 42.1001H212.512V43.4161C213.047 42.6142 213.828 41.9355 215.144 41.9355C217.036 41.9355 218.146 43.2105 218.146 45.1641V50.5107H216.213V45.7399C216.213 44.4238 215.555 43.6835 214.404 43.6835C213.293 43.6835 212.512 44.4649 212.512 45.7604V50.5107H210.579V42.1001Z" fill="#444444"/>
<path d="M220.859 48.1869V43.7657H219.79V42.1H220.859V39.7969H222.792V42.1H225.054V43.7657H222.792V47.899C222.792 48.6393 223.183 48.9478 223.82 48.9478C224.252 48.9478 224.643 48.845 225.013 48.6599V50.2433C224.54 50.5106 223.985 50.6751 223.286 50.6751C221.846 50.6546 220.859 50.0377 220.859 48.1869Z" fill="#444444"/>
<path d="M226.308 49.4208L227.172 48.1047C228.077 48.7833 229.064 49.1329 229.928 49.1329C230.75 49.1329 231.244 48.7833 231.244 48.2281V48.1869C231.244 47.5289 230.359 47.3027 229.372 47.0148C228.139 46.6652 226.74 46.1511 226.74 44.5472V44.506C226.74 42.9226 228.056 41.9355 229.743 41.9355C230.791 41.9355 231.943 42.3057 232.827 42.8815L232.066 44.2593C231.244 43.7657 230.401 43.4573 229.701 43.4573C228.961 43.4573 228.529 43.8069 228.529 44.3004V44.3415C228.529 44.9379 229.434 45.2052 230.421 45.5137C231.655 45.9044 233.033 46.4596 233.033 47.9607V48.0019C233.033 49.7704 231.655 50.6546 229.907 50.6546C228.673 50.6752 227.357 50.2433 226.308 49.4208Z" fill="#444444"/>
<path d="M234.822 48.332H236.94V50.5118H234.822V48.332Z" fill="#444444"/>
<path d="M238.462 46.3578V46.3167C238.462 43.9313 240.312 41.916 242.821 41.916C244.405 41.916 245.392 42.5124 246.173 43.3555L244.98 44.651C244.384 44.0341 243.767 43.6022 242.801 43.6022C241.402 43.6022 240.374 44.8155 240.374 46.2755V46.3167C240.374 47.8178 241.402 49.0311 242.883 49.0311C243.788 49.0311 244.466 48.5993 245.063 47.9823L246.235 49.1339C245.412 50.0593 244.425 50.7173 242.801 50.7173C240.312 50.7173 238.462 48.7432 238.462 46.3578Z" fill="#444444"/>
<path d="M247.304 46.3578V46.3167C247.304 43.9107 249.216 41.916 251.786 41.916C254.357 41.916 256.269 43.8696 256.269 46.2755V46.3167C256.269 48.7021 254.357 50.6968 251.766 50.6968C249.216 50.7173 247.304 48.7432 247.304 46.3578ZM254.357 46.3578V46.3167C254.357 44.8361 253.288 43.6022 251.786 43.6022C250.244 43.6022 249.257 44.8155 249.257 46.2755V46.3167C249.257 47.7767 250.326 49.0311 251.828 49.0311C253.37 49.0311 254.357 47.8178 254.357 46.3578Z" fill="#444444"/>
<path d="M258.245 42.1001H260.178V43.375C260.713 42.6347 261.453 41.9355 262.748 41.9355C263.962 41.9355 264.805 42.5319 265.257 43.4161C265.936 42.5319 266.841 41.9355 268.116 41.9355C269.946 41.9355 271.056 43.1077 271.056 45.1435V50.5107H269.123V45.7399C269.123 44.4032 268.506 43.6835 267.416 43.6835C266.368 43.6835 265.607 44.4238 265.607 45.7604V50.5107H263.674V45.7193C263.674 44.4032 263.036 43.6835 261.967 43.6835C260.898 43.6835 260.157 44.4855 260.157 45.781V50.5107H258.224V42.1001H258.245Z" fill="#444444"/>
<path d="M0.518799 32.93C1.73206 31.2849 2.80138 29.7837 3.93239 28.3031C4.05577 28.118 4.40536 28.0152 4.63156 28.0152C9.03222 27.9947 13.4329 28.0152 17.8129 28.0152C18.2448 28.0152 18.6766 28.0152 19.0879 27.9741C19.7048 27.8918 20.1161 27.6039 20.0955 26.9048C20.075 26.2056 19.7459 25.7532 19.0673 25.6504C18.7794 25.6093 18.471 25.6093 18.1625 25.6093C14.2965 25.6298 10.4305 25.5476 6.56456 25.6709C3.68562 25.7738 1.4236 23.2239 1.34135 20.6122C1.32078 19.6252 1.27966 18.5559 1.62924 17.6511C2.3901 15.6152 4.13803 14.5254 6.19441 14.5048C12.7954 14.402 19.4169 14.4637 26.0179 14.4637C26.1207 14.4637 26.203 14.4842 26.3881 14.5254C25.8123 16.1293 25.2571 17.7128 24.6813 19.2962C24.4139 19.3167 24.2083 19.3167 23.9821 19.3167C19.129 19.2962 14.276 19.2756 9.44349 19.2756C8.84714 19.2756 8.20966 19.2962 7.675 19.5224C7.32542 19.6663 6.93471 20.1804 6.91414 20.5506C6.89358 20.859 7.32542 21.332 7.675 21.4965C8.10684 21.7021 8.64151 21.7227 9.13504 21.7227C12.8571 21.6816 16.5791 21.7227 20.2806 21.5376C24.2906 21.332 25.9973 24.725 25.6066 27.8507C25.1337 31.5933 22.4398 32.8477 19.7048 32.8889C13.5974 32.9505 7.48993 32.93 1.38248 32.93C1.15627 32.93 0.930075 32.93 0.518799 32.93Z" fill="url(#paint0_linear_127_3321)"/>
<path d="M48.6997 21.6192C46.9724 24.8066 45.3478 27.85 43.7027 30.8524C43.1064 31.9628 42.4072 33.0116 41.05 33.1966C40.4125 33.2789 39.7545 33.1555 38.9114 33.1144C39.2609 32.662 39.446 32.4358 39.6311 32.2096C41.1528 30.3588 41.6463 28.2202 41.4201 25.8759C41.3584 25.3413 41.4613 24.7243 41.6669 24.2308C42.9007 21.3313 44.2374 18.5141 46.2938 16.067C46.6228 15.6763 46.9518 15.3061 47.322 14.9771C49.0699 13.3731 51.3113 13.7021 52.4218 15.7996C52.977 16.8484 53.3266 18.0205 53.6556 19.1721C54.4782 21.9688 55.239 24.7655 55.9793 27.5827C56.1438 28.1791 56.514 28.1379 56.9458 28.1379C62.8065 28.1379 68.6466 28.1585 74.5073 28.1585C74.8158 28.1585 75.1448 28.1585 75.6383 28.1585C74.4251 29.7419 73.3352 31.2019 72.2247 32.6414C72.1014 32.7854 71.7929 32.847 71.5461 32.847C65.0891 32.8676 58.6321 32.847 52.175 32.8676C51.5787 32.8676 51.4964 32.5592 51.373 32.1273C50.5299 28.796 49.6868 25.4646 48.8231 22.1333C48.8231 22.0099 48.782 21.9071 48.6997 21.6192Z" fill="url(#paint1_linear_127_3321)"/>
<path d="M37.677 32.024C36.7516 30.2143 35.8673 28.487 34.9831 26.739C34.4896 25.752 34.0166 24.7649 33.5025 23.7779C33.2763 23.3255 33.009 22.8936 32.7005 22.5029C32.536 22.2767 32.2481 22.1533 32.0219 21.9682C31.8985 22.215 31.6929 22.4618 31.6312 22.7085C30.8703 25.8548 30.13 29.0011 29.4103 32.1473C29.2869 32.7026 29.0607 32.9288 28.4644 32.9082C27.2717 32.8465 26.0584 32.8876 24.804 32.8876C25.277 32.1473 25.7499 31.4893 26.1201 30.7696C27.3745 28.4047 27.5184 25.9371 26.5725 23.4283C26.4285 23.0581 26.3463 22.6263 26.4285 22.2561C26.8604 20.2409 27.21 18.1845 28.2999 16.416C28.7523 15.6757 29.328 14.9765 30.0272 14.4624C31.2199 13.5576 32.7005 13.7427 33.7081 14.8532C34.4484 15.6963 35.1476 16.6011 35.7028 17.5881C37.0395 19.9119 38.335 22.2561 39.5277 24.6621C40.6381 26.9858 39.8156 30.2143 37.677 32.024Z" fill="url(#paint2_linear_127_3321)"/>
<path d="M54.0871 14.4434C61.2433 14.4434 68.3584 14.4434 75.5969 14.4434C74.9389 15.3276 74.3219 16.1296 73.7256 16.9521C73.6845 17.0138 73.6022 17.055 73.5816 17.1167C72.718 18.988 71.2168 19.2759 69.2838 19.2142C64.986 19.0702 60.7087 19.1525 56.4108 19.1936C55.8351 19.1936 55.5677 19.0291 55.4032 18.4739C55.0536 17.3223 54.6218 16.1913 54.2311 15.0603C54.1694 14.8546 54.1488 14.6696 54.0871 14.4434Z" fill="url(#paint3_linear_127_3321)"/>
<path d="M56.1653 21.373C62.3961 21.373 68.483 21.373 74.7138 21.373C73.6857 22.792 72.7397 24.1286 71.7527 25.4447C71.6498 25.5886 71.3414 25.6092 71.1357 25.6092C66.7351 25.6092 62.355 25.6092 57.9543 25.6298C57.5842 25.6298 57.3785 25.5681 57.2757 25.1362C56.9467 23.9024 56.556 22.6891 56.1653 21.373Z" fill="url(#paint4_linear_127_3321)"/>
<path d="M52.9166 10.0017C52.9166 11.8113 51.5182 13.333 49.832 13.333C48.0841 13.3536 46.7063 11.8319 46.7063 9.87831C46.7063 8.08926 48.1458 6.56753 49.832 6.5881C51.5594 6.62922 52.9371 8.13038 52.9166 10.0017Z" fill="#575757"/>
<path d="M33.9342 9.98092C33.9342 11.8111 32.5564 13.3328 30.8702 13.3328C29.1428 13.3534 27.7239 11.8317 27.7239 9.98092C27.7239 8.10961 29.1223 6.58789 30.8291 6.58789C32.577 6.62902 33.9342 8.08905 33.9342 9.98092Z" fill="#575757"/>
<path d="M41.6875 13.8873L40.9472 13.3321C40.906 13.3938 40.906 13.4555 40.906 13.476C40.8855 13.3732 40.6181 12.818 37.8215 11.1729C37.7598 11.1317 37.6981 11.0906 37.657 11.0906C37.3485 10.9055 37.04 10.741 36.7316 10.5971C35.724 10.083 34.6752 9.52776 34.1817 8.27337C33.4208 6.40206 33.976 5.31218 34.5724 4.73639C35.7445 3.60538 37.9037 3.62595 39.5694 4.18117C39.6516 3.97553 39.775 3.7082 39.9395 3.35862C40.104 3.0296 40.4948 2.20704 40.6798 2.04253C41.4407 1.26111 42.51 0.870396 43.7027 0.973215C44.8954 1.07603 45.6974 1.56957 46.0881 2.45381C47.5687 5.78515 42.0165 13.4555 41.6875 13.8873C41.708 13.8873 41.708 13.8873 41.6875 13.8873ZM37.3691 4.71583C36.4848 4.71583 35.7034 4.94203 35.2304 5.39444C34.6546 5.94966 34.6135 6.79278 35.0659 7.90322C35.4361 8.84916 36.2586 9.26043 37.184 9.75397C37.4924 9.91848 37.8215 10.083 38.1505 10.2886L38.2944 10.3709C40.1452 11.4608 41.0294 12.1599 41.4407 12.6329C43.1269 10.2064 46.1498 4.94203 45.2244 2.82396C44.9777 2.26874 44.443 1.96028 43.5999 1.87802C42.9624 1.81633 42.0576 1.91915 41.3379 2.63888C41.1528 2.90621 39.6516 4.92147 39.59 5.20936C39.6105 5.10654 40.2891 4.38681 40.0629 4.28399L39.59 5.20936C38.8702 4.88034 38.1299 4.71583 37.3691 4.71583Z" fill="#DB0A17"/>
<path d="M91.0208 30.2553L92.8304 28.0961C94.4755 29.515 96.1 30.317 98.2387 30.317C100.089 30.317 101.261 29.4533 101.261 28.1578V28.1166C101.261 26.9034 100.583 26.2453 97.3955 25.505C93.7557 24.6208 91.6994 23.5515 91.6994 20.4052V20.3641C91.6994 17.4235 94.1464 15.4082 97.5395 15.4082C100.028 15.4082 102.001 16.1691 103.749 17.5674L102.145 19.8294C100.603 18.6779 99.0612 18.0609 97.4984 18.0609C95.7299 18.0609 94.7222 18.9657 94.7222 20.0968V20.1379C94.7222 21.454 95.5037 22.0503 98.7733 22.8317C102.392 23.716 104.263 25.0115 104.263 27.8493V27.8904C104.263 31.0984 101.755 32.9903 98.1564 32.9903C95.5448 32.9903 93.0771 32.0855 91.0208 30.2553Z" fill="#444444" stroke="#444444" stroke-miterlimit="10"/>
<path d="M107.019 15.6348H110.227L115.43 23.7163L120.633 15.6348H123.841V32.7439H120.818V20.4878L115.409 28.5488H115.307L109.96 20.529V32.7439H106.999V15.6348H107.019Z" fill="#444444" stroke="#444444" stroke-miterlimit="10"/>
<path d="M127.439 15.6348H140.127V18.3286H130.462V22.7704H139.037V25.4643H130.462V30.05H140.251V32.7439H127.46V15.6348H127.439Z" fill="#444444" stroke="#444444" stroke-miterlimit="10"/>
<path d="M149.587 15.6348H152.795L157.997 23.7163L163.18 15.6348H166.387V32.7439H163.385V20.4878L157.977 28.5488H157.874L152.527 20.529V32.7439H149.566V15.6348H149.587Z" fill="#444444" stroke="#444444" stroke-miterlimit="10"/>
<path d="M177.552 32.7437V31.1603C176.668 32.209 175.331 33.011 173.378 33.011C170.93 33.011 168.792 31.6127 168.792 29.0216V28.9805C168.792 26.1221 171.013 24.7444 174.015 24.7444C175.578 24.7444 176.586 24.9706 177.573 25.279V25.0323C177.573 23.2432 176.442 22.2767 174.406 22.2767C172.966 22.2767 171.897 22.5852 170.725 23.0787L169.923 20.7138C171.342 20.0764 172.74 19.6445 174.838 19.6445C178.642 19.6445 180.513 21.6392 180.513 25.0939V32.7437H177.552ZM177.614 27.3354C176.853 27.0475 175.804 26.8213 174.653 26.8213C172.802 26.8213 171.691 27.5822 171.691 28.816V28.8571C171.691 30.0704 172.781 30.7696 174.18 30.7696C176.133 30.7696 177.593 29.6797 177.593 28.0551V27.3354H177.614Z" fill="#444444" stroke="#444444" stroke-miterlimit="10"/>
<path d="M183.7 29.1865V22.4004H182.054V19.8505H183.7V16.293H186.661V19.8299H190.136V22.3799H186.661V28.7135C186.661 29.8651 187.257 30.3175 188.244 30.3175C188.902 30.3175 189.499 30.1735 190.074 29.8857V32.3122C189.334 32.7235 188.512 32.9702 187.422 32.9702C185.242 32.9702 183.7 32.0037 183.7 29.1865Z" fill="#444444" stroke="#444444" stroke-miterlimit="10"/>
<path d="M192.339 19.85H195.3V22.7495C196.102 20.8165 197.603 19.5005 199.865 19.6033V22.729H199.701C197.11 22.729 195.3 24.4152 195.3 27.8288V32.7436H192.339V19.85Z" fill="#444444" stroke="#444444" stroke-miterlimit="10"/>
<path d="M201.675 15.0586H204.841V17.8758H201.675V15.0586ZM201.798 19.85H204.759V32.7435H201.798V19.85Z" fill="#444444" stroke="#444444" stroke-miterlimit="10"/>
<path d="M207.843 19.8494H210.804V21.8029C211.626 20.6514 212.757 19.582 214.731 19.582C216.582 19.582 217.878 20.4868 218.577 21.8441C219.626 20.4663 221.003 19.582 222.957 19.582C225.774 19.582 227.481 21.3711 227.481 24.5173V32.7429H224.52V25.4222C224.52 23.3658 223.574 22.2759 221.908 22.2759C220.304 22.2759 219.153 23.4069 219.153 25.4838V32.7634H216.192V25.4016C216.192 23.4069 215.204 22.2759 213.58 22.2759C211.955 22.2759 210.824 23.4892 210.824 25.5044V32.7634H207.863V19.8494H207.843Z" fill="#444444" stroke="#444444" stroke-miterlimit="10"/>
<path d="M229.558 26.3681V26.327C229.558 22.646 232.499 19.582 236.447 19.582C240.396 19.582 243.316 22.5843 243.316 26.2653V26.3064C243.316 29.9668 240.375 33.0308 236.406 33.0308C232.458 33.0308 229.558 30.0285 229.558 26.3681ZM240.354 26.3681V26.327C240.354 24.0649 238.709 22.1731 236.406 22.1731C234.041 22.1731 232.52 24.0238 232.52 26.2858V26.327C232.52 28.5684 234.165 30.4809 236.447 30.4809C238.833 30.4603 240.354 28.589 240.354 26.3681Z" fill="#444444" stroke="#444444" stroke-miterlimit="10"/>
<path d="M245.536 19.8494H248.497V21.8441C249.32 20.6308 250.533 19.582 252.528 19.582C255.427 19.582 257.113 21.5356 257.113 24.5379V32.7429H254.152V25.4222C254.152 23.4275 253.145 22.2759 251.397 22.2759C249.69 22.2759 248.497 23.4686 248.497 25.4838V32.7634H245.536V19.8494Z" fill="#444444" stroke="#444444" stroke-miterlimit="10"/>
<path d="M259.11 35.952L260.118 33.7517C260.653 34.0396 261.249 34.2452 261.845 34.2452C262.668 34.2452 263.182 33.8751 263.676 32.7646L258.308 19.8711H261.455L265.115 29.4538L268.467 19.8711H271.552L266.431 33.1348C265.403 35.7669 264.251 36.754 262.174 36.754C260.92 36.7334 260.015 36.425 259.11 35.952Z" fill="#444444" stroke="#444444" stroke-miterlimit="10"/>
<path d="M83.802 14.0098V33.1341" stroke="#444444" stroke-width="2" stroke-miterlimit="10"/>
</g>
<defs>
<linearGradient id="paint0_linear_127_3321" x1="0.517021" y1="23.6866" x2="26.3971" y2="23.6816" gradientUnits="userSpaceOnUse">
<stop stop-color="#E11D1E"/>
<stop offset="0.3589" stop-color="#EA147E"/>
<stop offset="1" stop-color="#573675"/>
</linearGradient>
<linearGradient id="paint1_linear_127_3321" x1="38.9104" y1="23.5893" x2="75.6558" y2="23.5822" gradientUnits="userSpaceOnUse">
<stop stop-color="#E11D1E"/>
<stop offset="0.3589" stop-color="#EA147E"/>
<stop offset="1" stop-color="#573675"/>
</linearGradient>
<linearGradient id="paint2_linear_127_3321" x1="24.799" y1="23.4236" x2="40.0061" y2="23.4206" gradientUnits="userSpaceOnUse">
<stop stop-color="#E11D1E"/>
<stop offset="0.3589" stop-color="#EA147E"/>
<stop offset="1" stop-color="#573675"/>
</linearGradient>
<linearGradient id="paint3_linear_127_3321" x1="54.0794" y1="16.8287" x2="75.5948" y2="16.8245" gradientUnits="userSpaceOnUse">
<stop stop-color="#E11D1E"/>
<stop offset="0.3589" stop-color="#EA147E"/>
<stop offset="1" stop-color="#573675"/>
</linearGradient>
<linearGradient id="paint4_linear_127_3321" x1="56.162" y1="23.5028" x2="74.7047" y2="23.4993" gradientUnits="userSpaceOnUse">
<stop stop-color="#E11D1E"/>
<stop offset="0.3589" stop-color="#EA147E"/>
<stop offset="1" stop-color="#573675"/>
</linearGradient>
<clipPath id="clip0_127_3321">
<rect width="273" height="53" fill="white" transform="translate(0.0344238 0.5)"/>
</clipPath>
</defs>
</svg>
